<svg width="32" height="32" viewBox="0 0 32 32" fill="none" xmlns="http://www.w3.org/2000/svg">
  <defs>
    <linearGradient id="brainGradient" x1="0%" y1="0%" x2="100%" y2="100%">
      <stop offset="0%" style="stop-color:#667eea;stop-opacity:1" />
      <stop offset="100%" style="stop-color:#764ba2;stop-opacity:1" />
    </linearGradient>
    <linearGradient id="questionGradient" x1="0%" y1="0%" x2="100%" y2="100%">
      <stop offset="0%" style="stop-color:#f093fb;stop-opacity:1" />
      <stop offset="100%" style="stop-color:#f5576c;stop-opacity:1" />
    </linearGradient>
  </defs>
  
  <!-- Background circle -->
  <circle cx="16" cy="16" r="15" fill="url(#brainGradient)" stroke="#fff" stroke-width="1"/>
  
  <!-- Brain shape -->
  <path d="M10 12c0-2 1.5-3.5 3.5-3.5S17 10 17 12c0 .5-.1 1-.3 1.4.8.3 1.3 1 1.3 1.8 0 .8-.4 1.5-1 1.9v1.4c0 1.4-1.1 2.5-2.5 2.5h-3c-1.4 0-2.5-1.1-2.5-2.5v-1.4c-.6-.4-1-1.1-1-1.9 0-.8.5-1.5 1.3-1.8-.2-.4-.3-.9-.3-1.4z" fill="white" opacity="0.95"/>
  
  <!-- Brain details -->
  <path d="M12 14c0-.5.4-1 1-1s1 .5 1 1-.4 1-1 1-1-.5-1-1z" fill="url(#brainGradient)" opacity="0.7"/>
  <path d="M15 16c0-.3.2-.5.5-.5s.5.2.5.5-.2.5-.5.5-.5-.2-.5-.5z" fill="url(#brainGradient)" opacity="0.7"/>
  
  <!-- Question mark accent -->
  <circle cx="22" cy="10" r="4" fill="url(#questionGradient)" opacity="0.9"/>
  <text x="22" y="13" text-anchor="middle" fill="white" font-family="Arial, sans-serif" font-size="5" font-weight="bold">?</text>
</svg>
